<svg height="85.333336" viewBox="0 0 85.333336 85.333336" width="85.333336" xmlns="http://www.w3.org/2000/svg"><g transform="matrix(.13333333 0 0 -.13333333 0 85.333333)"><path d="m640 320c0-176.73-143.27-320-320-320s-320 143.27-320 320 143.27 320 320 320 320-143.27 320-320" fill="#7db6d8"/><path d="m440 100h-240c-22.09 0-40 17.906-40 40v320-300c0-22.094 17.91-40 40-40h240c22.09 0 40 17.906 40 40v-20c0-22.094-17.91-40-40-40" fill="#6594b2"/><path d="m480 160c0-22.094-17.91-40-40-40h-240c-22.09 0-40 17.906-40 40v320c0 22.094 17.91 40 40 40h240c22.09 0 40-17.906 40-40z" fill="#495672"/><path d="m423.332 415c-1.73 0-3.437.668-4.711 1.918l-28.621 28.066-28.621-28.066c-1.274-1.25-2.981-1.918-4.711-1.918l-2.555.496c-2.484 1.016-4.113 3.402-4.113 6.043v78.461h80v-78.461c0-2.641-1.629-5.027-4.121-6.043z" fill="#404a5f"/><path d="m350 520v-78.461c0-2.641 1.629-5.027 4.113-6.043l2.555-.496c1.73 0 3.437.668 4.711 1.918l28.621 28.066 28.621-28.066c1.274-1.25 2.981-1.918 4.711-1.918l2.547.496c2.492 1.016 4.121 3.402 4.121 6.043v78.461z" fill="#c84755"/><path d="m230 120h-30v400h30z" fill="#e1e3cc"/></g></svg>